<svg width="25" height="22" viewBox="0 0 25 22" fill="none" xmlns="http://www.w3.org/2000/svg">
<g clip-path="url(#clip0_122_46)">
<path d="M23.0662 11.3651C25.6446 8.77003 25.6446 4.54759 23.0662 1.95252C21.8158 0.693367 20.1523 0 18.383 0C16.6137 0 14.9492 0.693367 13.6983 1.95252L12.5 3.15827L11.3017 1.95252C10.0508 0.693367 8.3873 0 6.61749 0C4.84821 0 3.18469 0.693367 1.93379 1.95252C-0.644596 4.54759 -0.644596 8.77003 1.93379 11.3651L12.5 22L23.0662 11.3651ZM2.67464 2.68167C3.72808 1.62114 5.12902 1.0372 6.61749 1.0372C8.10649 1.0372 9.50743 1.62114 10.5609 2.68167L12.5 4.63368L14.4391 2.68167C15.4926 1.62114 16.8935 1.0372 18.3825 1.0372C19.8715 1.0372 21.2719 1.62114 22.3254 2.68167C24.5047 4.87483 24.5047 8.44279 22.3254 10.6359L12.5 20.5251L2.67464 10.6359C0.495332 8.44279 0.495332 4.87431 2.67464 2.68167Z" fill="black"/>
</g>
<defs>
<clipPath id="clip0_122_46">
<rect width="25" height="22" fill="white"/>
</clipPath>
</defs>
</svg>
