<svg width="25" height="32" viewBox="0 0 25 32" fill="none" xmlns="http://www.w3.org/2000/svg">
<g clip-path="url(#clip0_119_22)">
<path fill-rule="evenodd" clip-rule="evenodd" d="M12.75 31.375C14.4687 31.375 15.875 29.9688 15.875 28.25H9.62499C9.62499 29.9688 11.0156 31.375 12.75 31.375ZM22.125 22V14.1875C22.125 9.39062 19.5625 5.375 15.0937 4.3125V3.25C15.0937 1.95312 14.0469 0.90625 12.75 0.90625C11.4531 0.90625 10.4062 1.95312 10.4062 3.25V4.3125C5.92186 5.375 3.37499 9.375 3.37499 14.1875V22L1.35936 24.0156C0.374989 25 1.06249 26.6875 2.45311 26.6875H23.0312C24.4219 26.6875 25.125 25 24.1406 24.0156L22.125 22Z" fill="#16659D"/>
</g>
<defs>
<clipPath id="clip0_119_22">
<rect width="25" height="31.25" fill="white"/>
</clipPath>
</defs>
</svg>
