<svg width="27" height="27" viewBox="0 0 27 27" fill="none" xmlns="http://www.w3.org/2000/svg">
<path d="M24.9749 16.2L23.6249 15.4125C22.1624 14.5125 22.1624 12.375 23.6249 11.475L24.9749 10.6875C26.0999 10.0125 26.4374 8.6625 25.7624 7.65L24.6374 5.7375C23.9624 4.6125 22.6124 4.275 21.5999 4.95L20.2499 5.7375C18.7874 6.6375 16.8749 5.5125 16.8749 3.825V2.25C16.8749 1.0125 15.8624 0 14.6249 0H12.3749C11.1374 0 10.1249 1.0125 10.1249 2.25V3.7125C10.1249 5.4 8.21245 6.525 6.74995 5.625L5.39995 4.95C4.27495 4.275 2.92495 4.725 2.36245 5.7375L1.23745 7.65C0.674947 8.775 1.01245 10.125 2.02495 10.8L3.37495 11.5875C4.83745 12.375 4.83745 14.625 3.37495 15.4125L2.02495 16.2C0.899947 16.875 0.562447 18.225 1.23745 19.2375L2.36245 21.15C3.03745 22.275 4.38745 22.6125 5.39995 21.9375L6.74995 21.2625C8.21245 20.3625 10.1249 21.4875 10.1249 23.175V24.75C10.1249 25.9875 11.1374 27 12.3749 27H14.6249C15.8624 27 16.8749 25.9875 16.8749 24.75V23.2875C16.8749 21.6 18.7874 20.475 20.2499 21.375L21.5999 22.1625C22.7249 22.8375 24.0749 22.3875 24.6374 21.375L25.7624 19.4625C26.3249 18.225 25.9874 16.875 24.9749 16.2ZM13.4999 18C11.0249 18 8.99995 15.975 8.99995 13.5C8.99995 11.025 11.0249 9 13.4999 9C15.9749 9 17.9999 11.025 17.9999 13.5C17.9999 15.975 15.9749 18 13.4999 18Z" fill="#16659D"/>
</svg>
