<svg width="32" height="32" viewBox="0 0 32 32" fill="none" xmlns="http://www.w3.org/2000/svg">
<path d="M21 30H11C9.67392 30 8.40215 29.4732 7.46447 28.5355C6.52678 27.5979 6 26.3261 6 25V24C6 21.6131 6.94821 19.3239 8.63604 17.636C10.3239 15.9482 12.6131 15 15 15H17C19.3869 15 21.6761 15.9482 23.364 17.636C25.0518 19.3239 26 21.6131 26 24V25C26 26.3261 25.4732 27.5979 24.5355 28.5355C23.5979 29.4732 22.3261 30 21 30ZM15 17C13.1435 17 11.363 17.7375 10.0503 19.0503C8.7375 20.363 8 22.1435 8 24V25C8 25.7956 8.31607 26.5587 8.87868 27.1213C9.44129 27.6839 10.2044 28 11 28H21C21.7956 28 22.5587 27.6839 23.1213 27.1213C23.6839 26.5587 24 25.7956 24 25V24C24 22.1435 23.2625 20.363 21.9497 19.0503C20.637 17.7375 18.8565 17 17 17H15Z" fill="#16659D"/>
<path d="M16 14C14.8133 14 13.6533 13.6481 12.6666 12.9888C11.6799 12.3295 10.9109 11.3925 10.4567 10.2961C10.0026 9.19975 9.88378 7.99335 10.1153 6.82946C10.3468 5.66558 10.9182 4.59648 11.7574 3.75736C12.5965 2.91825 13.6656 2.3468 14.8295 2.11529C15.9933 1.88378 17.1997 2.0026 18.2961 2.45673C19.3925 2.91085 20.3295 3.67989 20.9888 4.66658C21.6481 5.65328 22 6.81331 22 8C22 9.5913 21.3679 11.1174 20.2426 12.2426C19.1174 13.3679 17.5913 14 16 14ZM16 4C15.2089 4 14.4355 4.2346 13.7777 4.67412C13.1199 5.11365 12.6072 5.73836 12.3045 6.46927C12.0017 7.20017 11.9225 8.00444 12.0769 8.78036C12.2312 9.55629 12.6122 10.269 13.1716 10.8284C13.731 11.3878 14.4437 11.7688 15.2196 11.9231C15.9956 12.0775 16.7998 11.9983 17.5307 11.6955C18.2616 11.3928 18.8864 10.8801 19.3259 10.2223C19.7654 9.56449 20 8.79113 20 8C20 6.93914 19.5786 5.92172 18.8284 5.17158C18.0783 4.42143 17.0609 4 16 4Z" fill="#16659D"/>
</svg>
