<svg width="20" height="20" viewBox="0 0 20 20" fill="none" xmlns="http://www.w3.org/2000/svg">
    <g clip-path="url(#clip0_97_45)">
        <path d="M13.8571 9.1538L1.85714 0.228005C1.51429 -0.0154259 1.05714 -0.0695217 0.657143 0.0927656C0.257143 0.282101 0 0.660771 0 1.06649V18.9181C0 19.3238 0.257143 19.7025 0.657143 19.8918C0.828571 19.973 1 20 1.14286 20C1.4 20 1.65714 19.9189 1.85714 19.7566L13.8571 10.8308C14.1429 10.6144 14.2857 10.3169 14.2857 9.99229C14.2857 9.66771 14.1143 9.34314 13.8571 9.1538ZM2.28571 16.7002V3.28441L11.2857 9.99229L2.28571 16.7002ZM20 1.49926V18.6747C20 19.3509 19.4286 19.8918 18.7143 19.8918C18 19.8918 17.4286 19.3509 17.4286 18.6747V1.49926C17.4286 0.823058 18 0.282101 18.7143 0.282101C19.4286 0.282101 20 0.823058 20 1.49926Z"
              fill="#E6ECFF"/>
    </g>
    <defs>
        <clipPath id="clip0_97_45">
            <rect width="20" height="20" fill="white"/>
        </clipPath>
    </defs>
</svg>
