<svg width="20" height="20" viewBox="0 0 20 20" fill="none" xmlns="http://www.w3.org/2000/svg">
<g clip-path="url(#clip0_97_47)">
<path d="M6.14286 10.8462L18.1429 19.772C18.4857 20.0154 18.9429 20.0695 19.3429 19.9072C19.7429 19.7179 20 19.3392 20 18.9335L20 1.08191C20 0.676196 19.7429 0.297526 19.3429 0.108192C19.1714 0.0270472 19 -9.53673e-07 18.8571 -9.53673e-07C18.6 -9.53673e-07 18.3429 0.0811434 18.1429 0.24343L6.14286 9.16923C5.85714 9.38561 5.71428 9.68314 5.71428 10.0077C5.71428 10.3323 5.88571 10.6569 6.14286 10.8462ZM17.7143 3.29984L17.7143 16.7156L8.71429 10.0077L17.7143 3.29984ZM-9.53673e-07 18.5007L-9.53673e-07 1.32535C-9.53673e-07 0.649148 0.571427 0.108192 1.28571 0.108192C2 0.108192 2.57143 0.649148 2.57143 1.32535L2.57143 18.5007C2.57143 19.1769 2 19.7179 1.28571 19.7179C0.571427 19.7179 -9.53673e-07 19.1769 -9.53673e-07 18.5007Z" fill="#E6ECFF"/>
</g>
<defs>
<clipPath id="clip0_97_47">
<rect width="20" height="20" fill="white" transform="translate(20 20) rotate(-180)"/>
</clipPath>
</defs>
</svg>
